# xmcd
#
# Track frame offsets:
#	150
#	13311
#	26995
#	39617
#	55888
#	88449
#	102115
#	116677
#	127957
#	142574
#	186337
#	199344
#	212593
#	225151
#
# Disc length: 3177 seconds
#
# Revision: 0
# Processed by: cddbd v1.5.2PL0 Copyright (c) Steve Scherf et al.
# Submitted via: EZCDAudioConverter 2.1.7.1
#
DISCID=c20c670e
DTITLE=Ides Of March - Vehicle
DYEAR=1900
DGENRE=
TTITLE0=Vehicle
TTITLE1=Factory Band
TTITLE2=The Sky Is Falling
TTITLE3=Home
TTITLE4=Wooden Ships/Dharma For One
TTITLE5=Bald Medusa
TTITLE6=Aire Of Good Feeling
TTITLE7=Time For Thinking
TTITLE8=One Woman Man
TTITLE9=Symphony For Eleanor (Eleanor Rigby)
TTITLE10=High On A Hillside
TTITLE11=Lead Me Home, Gently
TTITLE12=Melody
TTITLE13=Vehicle [Single Version]
EXTD=
EXTT0=
EXTT1=
EXTT2=
EXTT3=
EXTT4=
EXTT5=
EXTT6=
EXTT7=
EXTT8=
EXTT9=
EXTT10=
EXTT11=
EXTT12=
EXTT13=
PLAYORDER=
